# xmcd CD database file
#
# Track frame offsets:
#	182
#	19232
#	35165
#	49712
#	64300
#	80582
#	96295
#	112950
#	127485
#	140390
#
# Disc length: 2120 seconds
#
# Revision: 2
# Processed by: cddbd v1.5.2PL0 Copyright (c) Steve Scherf et al.
# Submitted via: CDex 1.70beta2
#
DISCID=9308460a
DTITLE=S. Alan Taylor - Forever Dance
DYEAR=1994
DGENRE=Country
TTITLE0=Black and White
TTITLE1=I Want To Know Love
TTITLE2=Forever Dance
TTITLE3=River Road
TTITLE4=There's A Word For That
TTITLE5=Woman In Black
TTITLE6=Something Worth Keeping
TTITLE7=Drunk On Your Love
TTITLE8=She's Got A Way
TTITLE9=Savannah By Moonlight
EXTD=YEAR: 1994
EXTT0=
EXTT1=
EXTT2=
EXTT3=
EXTT4=
EXTT5=
EXTT6=
EXTT7=
EXTT8=
EXTT9=
PLAYORDER=
